<svg width="184" height="42" viewBox="0 0 184 42" fill="none" xmlns="http://www.w3.org/2000/svg">
<path d="M25.9648 32.5271C25.9648 36.2212 22.9667 39.2192 19.2727 39.2192H7.41662C3.72256 39.2192 0.724487 36.2212 0.724487 32.5271C0.724487 28.833 3.7177 25.835 7.41662 25.835H19.2727C22.9667 25.835 25.9648 28.833 25.9648 32.5271Z" fill="#045EAF"/>
<path d="M41.0234 38.2994C44.2064 36.4207 45.2674 32.3178 43.3887 29.1348L37.4315 19.245C35.5528 16.062 31.4499 15.001 28.2669 16.8796C25.0839 18.7583 24.0229 22.8612 25.9016 26.0442L31.8588 35.934C33.7374 39.117 37.8403 40.178 41.0234 38.2994Z" fill="url(#paint0_linear_20_421)"/>
<path d="M25.7555 0.984016C22.5725 -0.894649 18.4696 0.166359 16.591 3.34938L1.38642 29.1348C-0.492244 32.3178 0.568764 36.4207 3.75179 38.2994C4.915 38.9856 6.20476 39.2776 7.46531 39.2192H19.005C19.1802 39.2192 19.3505 39.2095 19.5209 39.1998C19.3895 39.1998 19.2581 39.1998 19.1169 39.1998C10.3661 39.1998 15.2525 32.0112 15.2525 32.0112H15.2282L28.1209 10.1535C29.9996 6.97044 28.9386 2.86755 25.7555 0.988883V0.984016Z" fill="url(#paint1_linear_20_421)"/>
<path d="M72.4462 31.8409H68.5547L67.0169 27.4159H57.6648L56.127 31.8409H52.2041L60.1754 9.87277H64.5063L72.4462 31.8409ZM62.3408 14.1095L58.8573 24.0265H65.8244L62.3408 14.1095ZM83.4703 15.7414C85.6043 15.7414 87.4454 16.5469 88.9937 18.1579C90.521 19.748 91.2846 21.6937 91.2846 23.9952C91.2846 26.3175 90.521 28.2737 88.9937 29.8638C87.4664 31.4539 85.6252 32.2489 83.4703 32.2489C81.1061 32.2489 79.2754 31.3702 77.9782 29.6127V38.1176H74.5888V16.1494H77.9782V18.409C79.2545 16.6306 81.0851 15.7414 83.4703 15.7414ZM79.3904 27.6042C80.3319 28.5457 81.514 29.0165 82.9367 29.0165C84.3594 29.0165 85.5415 28.5457 86.483 27.6042C87.4245 26.6418 87.8953 25.4388 87.8953 23.9952C87.8953 22.5515 87.4245 21.359 86.483 20.4175C85.5415 19.4551 84.3594 18.9739 82.9367 18.9739C81.514 18.9739 80.3319 19.4551 79.3904 20.4175C78.449 21.359 77.9782 22.5515 77.9782 23.9952C77.9782 25.4179 78.449 26.6209 79.3904 27.6042ZM103.238 15.7414C105.372 15.7414 107.213 16.5469 108.761 18.1579C110.289 19.748 111.052 21.6937 111.052 23.9952C111.052 26.3175 110.289 28.2737 108.761 29.8638C107.234 31.4539 105.393 32.2489 103.238 32.2489C100.874 32.2489 99.0431 31.3702 97.7459 29.6127V38.1176H94.3565V16.1494H97.7459V18.409C99.0221 16.6306 100.853 15.7414 103.238 15.7414ZM99.1581 27.6042C100.1 28.5457 101.282 29.0165 102.704 29.0165C104.127 29.0165 105.309 28.5457 106.251 27.6042C107.192 26.6418 107.663 25.4388 107.663 23.9952C107.663 22.5515 107.192 21.359 106.251 20.4175C105.309 19.4551 104.127 18.9739 102.704 18.9739C101.282 18.9739 100.1 19.4551 99.1581 20.4175C98.2166 21.359 97.7459 22.5515 97.7459 23.9952C97.7459 25.4179 98.2166 26.6209 99.1581 27.6042ZM117.514 16.1494V18.7856C118.371 16.8398 119.982 15.8669 122.347 15.8669V19.5388C121.07 19.4551 119.941 19.7689 118.957 20.4803C117.995 21.1707 117.514 22.3214 117.514 23.9324V31.8409H114.124V16.1494H117.514ZM136.543 18.3776V16.1494H139.932V31.8409H136.543V29.5814C135.267 31.3597 133.436 32.2489 131.051 32.2489C128.896 32.2489 127.055 31.4539 125.528 29.8638C124 28.2737 123.237 26.3175 123.237 23.9952C123.237 21.6728 124 19.7166 125.528 18.1265C127.055 16.5364 128.896 15.7414 131.051 15.7414C133.436 15.7414 135.267 16.6201 136.543 18.3776ZM128.038 27.6042C128.98 28.5457 130.162 29.0165 131.584 29.0165C133.007 29.0165 134.189 28.5457 135.131 27.6042C136.072 26.6418 136.543 25.4388 136.543 23.9952C136.543 22.5515 136.072 21.359 135.131 20.4175C134.189 19.4551 133.007 18.9739 131.584 18.9739C130.162 18.9739 128.98 19.4551 128.038 20.4175C127.097 21.359 126.626 22.5515 126.626 23.9952C126.626 25.4179 127.097 26.6209 128.038 27.6042ZM147.084 13.168C146.666 13.5864 146.163 13.7957 145.578 13.7957C144.992 13.7957 144.479 13.5864 144.04 13.168C143.621 12.7286 143.412 12.216 143.412 11.6302C143.412 11.0444 143.621 10.5423 144.04 10.1238C144.458 9.68447 144.971 9.46478 145.578 9.46478C146.184 9.46478 146.697 9.68447 147.115 10.1238C147.534 10.5423 147.743 11.0444 147.743 11.6302C147.743 12.216 147.523 12.7286 147.084 13.168ZM147.272 31.8409H143.883V16.1494H147.272V31.8409ZM154.16 20.4803C154.16 20.9615 154.411 21.359 154.913 21.6728C155.415 21.9657 156.148 22.2482 157.11 22.5202C157.842 22.6875 158.48 22.8654 159.024 23.0537C159.568 23.242 160.144 23.5244 160.75 23.901C161.357 24.2567 161.817 24.7379 162.131 25.3446C162.466 25.9305 162.623 26.6209 162.602 27.4159C162.602 28.9223 162.016 30.1044 160.845 30.9622C159.673 31.82 158.219 32.2489 156.482 32.2489C154.934 32.2489 153.606 31.9246 152.497 31.276C151.388 30.6275 150.582 29.7278 150.08 28.5771L152.999 26.8824C153.522 28.3888 154.683 29.142 156.482 29.142C158.261 29.142 159.15 28.5562 159.15 27.3845C159.15 26.5267 158.156 25.8572 156.168 25.376C155.415 25.1877 154.777 24.9994 154.254 24.8111C153.752 24.6228 153.187 24.3508 152.559 23.9952C151.953 23.6395 151.482 23.1687 151.147 22.5829C150.833 21.9971 150.687 21.3171 150.708 20.543C150.708 19.0994 151.252 17.9382 152.34 17.0595C153.449 16.1808 154.819 15.7414 156.451 15.7414C157.748 15.7414 158.899 16.0343 159.903 16.6201C160.928 17.185 161.713 17.9801 162.257 19.0053L159.401 20.6058C158.878 19.4132 157.895 18.817 156.451 18.817C155.781 18.817 155.227 18.9634 154.788 19.2563C154.369 19.5492 154.16 19.9572 154.16 20.4803ZM177.611 18.3776V16.1494H181V31.8409H177.611V29.5814C176.335 31.3597 174.504 32.2489 172.119 32.2489C169.964 32.2489 168.123 31.4539 166.595 29.8638C165.068 28.2737 164.304 26.3175 164.304 23.9952C164.304 21.6728 165.068 19.7166 166.595 18.1265C168.123 16.5364 169.964 15.7414 172.119 15.7414C174.504 15.7414 176.335 16.6201 177.611 18.3776ZM169.106 27.6042C170.047 28.5457 171.23 29.0165 172.652 29.0165C174.075 29.0165 175.257 28.5457 176.199 27.6042C177.14 26.6418 177.611 25.4388 177.611 23.9952C177.611 22.5515 177.14 21.359 176.199 20.4175C175.257 19.4551 174.075 18.9739 172.652 18.9739C171.23 18.9739 170.047 19.4551 169.106 20.4175C168.164 21.359 167.694 22.5515 167.694 23.9952C167.694 25.4179 168.164 26.6209 169.106 27.6042Z" fill="#0177FB"/>
<defs>
<linearGradient id="paint0_linear_20_421" x1="27.8727" y1="16.0669" x2="40.6194" y2="37.7396" gradientUnits="userSpaceOnUse">
<stop offset="0.17" stop-color="#0177FB"/>
<stop offset="0.36" stop-color="#017AFB"/>
<stop offset="0.55" stop-color="#0186FB"/>
<stop offset="0.74" stop-color="#019AFB"/>
<stop offset="0.94" stop-color="#01B6FB"/>
<stop offset="1" stop-color="#01C2FB"/>
</linearGradient>
<linearGradient id="paint1_linear_20_421" x1="5.01721" y1="43.6287" x2="25.1423" y2="8.58142" gradientUnits="userSpaceOnUse">
<stop offset="0.17" stop-color="#0177FB"/>
<stop offset="0.36" stop-color="#017AFB"/>
<stop offset="0.55" stop-color="#0186FB"/>
<stop offset="0.74" stop-color="#019AFB"/>
<stop offset="0.94" stop-color="#01B6FB"/>
<stop offset="1" stop-color="#01C2FB"/>
</linearGradient>
</defs>
</svg>
